<?xml version="1.0" encoding="UTF-8" standalone="no"?>
<svg
   viewBox="0 0 24 24"
   width="24"
   height="24"
   version="1.1"
   id="svg1"
   sodipodi:docname="drive-idle.svg"
   inkscape:version="1.4.2 (ebf0e940d0, 2025-05-08)"
   xmlns:inkscape="http://www.inkscape.org/namespaces/inkscape"
   xmlns:sodipodi="http://sodipodi.sourceforge.net/DTD/sodipodi-0.dtd"
   xmlns="http://www.w3.org/2000/svg"
   xmlns:svg="http://www.w3.org/2000/svg"
   xmlns:rdf="http://www.w3.org/1999/02/22-rdf-syntax-ns#"
   xmlns:cc="http://creativecommons.org/ns#"
   xmlns:dc="http://purl.org/dc/elements/1.1/">
  <sodipodi:namedview
     id="namedview1"
     pagecolor="#8a8a8a"
     bordercolor="#000000"
     borderopacity="0.25"
     inkscape:showpageshadow="2"
     inkscape:pageopacity="0.0"
     inkscape:pagecheckerboard="0"
     inkscape:deskcolor="#d1d1d1"
     inkscape:zoom="33.291667"
     inkscape:cx="12.015019"
     inkscape:cy="12"
     inkscape:window-width="1920"
     inkscape:window-height="1008"
     inkscape:window-x="0"
     inkscape:window-y="0"
     inkscape:window-maximized="1"
     inkscape:current-layer="svg1" />
  <defs
     id="defs3051">
    <style
       type="text/css"
       id="current-color-scheme">.ColorScheme-Text { color: #fcfcfc; } </style>
  </defs>
  <g
     transform="translate(1,1)"
     id="g1">
    <path
       style="fill:currentColor"
       d="m 11,4 a 6,6 0 0 0 -6,6 6,6 0 0 0 0,0.1 4,4 0 0 0 -3,3.9 4,4 0 0 0 4,4 h 9 A 5,5 0 0 0 20,13 5,5 0 0 0 16.8,8.3 6,6 0 0 0 11,4 Z m 0,1 A 5,5 0 0 1 15.9,9.1 4,4 0 0 1 19,13 4,4 0 0 1 15,17 H 6 A 3,3 0 0 1 3,14 3,3 0 0 1 6,11 3,3 0 0 1 6.1,11 5,5 0 0 1 6,10 5,5 0 0 1 11,5 Z"
       class="ColorScheme-Text"
       id="path1" />
  </g>
  <metadata
     id="metadata1">
    <rdf:RDF>
      <cc:Work
         rdf:about="">
        <dc:rights>
          <cc:Agent>
            <dc:title>Breeze icons copyright KDE and licenced under the GNU LGPL version 3 or later</dc:title>
          </cc:Agent>
        </dc:rights>
        <dc:source>https://develop.kde.org/frameworks/breeze-icons/</dc:source>
        <cc:license
           rdf:resource="https://develop.kde.org/frameworks/breeze-icons/" />
      </cc:Work>
    </rdf:RDF>
  </metadata>
</svg>
