<?xml version="1.0" encoding="UTF-8" standalone="no"?>
<svg
   viewBox="0 0 24 24"
   width="24"
   height="24"
   version="1.1"
   id="svg1"
   sodipodi:docname="conflict.svg"
   inkscape:version="1.4.2 (ebf0e940d0, 2025-05-08)"
   xmlns:inkscape="http://www.inkscape.org/namespaces/inkscape"
   xmlns:sodipodi="http://sodipodi.sourceforge.net/DTD/sodipodi-0.dtd"
   xmlns="http://www.w3.org/2000/svg"
   xmlns:svg="http://www.w3.org/2000/svg"
   xmlns:rdf="http://www.w3.org/1999/02/22-rdf-syntax-ns#"
   xmlns:cc="http://creativecommons.org/ns#"
   xmlns:dc="http://purl.org/dc/elements/1.1/">
  <sodipodi:namedview
     id="namedview1"
     pagecolor="#868686"
     bordercolor="#000000"
     borderopacity="0.25"
     inkscape:showpageshadow="2"
     inkscape:pageopacity="0.0"
     inkscape:pagecheckerboard="0"
     inkscape:deskcolor="#d1d1d1"
     inkscape:zoom="33.291667"
     inkscape:cx="12.015019"
     inkscape:cy="12"
     inkscape:window-width="1920"
     inkscape:window-height="1008"
     inkscape:window-x="0"
     inkscape:window-y="0"
     inkscape:window-maximized="1"
     inkscape:current-layer="svg1" />
  <defs
     id="defs3051">
    <style
       type="text/css"
       id="current-color-scheme">.ColorScheme-Text { color: #fcfcfc; } </style>
  </defs>
  <path
     id="path1"
     style="fill:currentColor"
     class="ColorScheme-Text"
     d="M 12 5 A 6 6 0 0 0 6 11 A 6 6 0 0 0 6 11.099609 A 4 4 0 0 0 3 15 A 4 4 0 0 0 7 19 L 9.5019531 19 L 9.5019531 18 L 7 18 A 3 3 0 0 1 4 15 A 3 3 0 0 1 7 12 A 3 3 0 0 1 7.0996094 12 A 5 5 0 0 1 7 11 A 5 5 0 0 1 12 6 A 5 5 0 0 1 16.121094 8.1933594 L 17.349609 8.1933594 A 6 6 0 0 0 12 5 z " />
  <metadata
     id="metadata1">
    <rdf:RDF>
      <cc:Work
         rdf:about="">
        <dc:rights>
          <cc:Agent>
            <dc:title>Breeze icons copyright KDE and licenced under the GNU LGPL version 3 or later</dc:title>
          </cc:Agent>
        </dc:rights>
        <dc:source>https://develop.kde.org/frameworks/breeze-icons/</dc:source>
        <cc:license
           rdf:resource="https://develop.kde.org/frameworks/breeze-icons/" />
      </cc:Work>
    </rdf:RDF>
  </metadata>
  <g
     transform="matrix(0.61701615,0,0,0.61701615,8.6213868,7.2766931)"
     id="g1"
     style="fill:#d9000e;fill-opacity:1">
    <g
       id="g13"
       class="ColorScheme-Text"
       fill="currentColor"
       stroke-linecap="square"
       style="color:#fcfcfc;fill:#d9000e;fill-opacity:1">
      <path
         id="path3"
         d="M 5.5,4 A 2.5,2.5 0 0 0 3,6.5 2.5,2.5 0 0 0 5.5,9 2.5,2.5 0 0 0 8,6.5 2.5,2.5 0 0 0 5.5,4 Z m 0,1 A 1.5,1.5 0 0 1 7,6.5 1.5,1.5 0 0 1 5.5,8 1.5,1.5 0 0 1 4,6.5 1.5,1.5 0 0 1 5.5,5 Z"
         style="fill:#d9000e;fill-opacity:1" />
      <path
         id="path5"
         d="M 5.5,14 A 2.5,2.5 0 0 0 3,16.5 2.5,2.5 0 0 0 5.5,19 2.5,2.5 0 0 0 8,16.5 2.5,2.5 0 0 0 5.5,14 Z m 0,1 A 1.5,1.5 0 0 1 7,16.5 1.5,1.5 0 0 1 5.5,18 1.5,1.5 0 0 1 4,16.5 1.5,1.5 0 0 1 5.5,15 Z"
         style="fill:#d9000e;fill-opacity:1" />
      <path
         id="path7"
         d="M 15.5,14 A 2.5,2.5 0 0 0 13,16.5 2.5,2.5 0 0 0 15.5,19 2.5,2.5 0 0 0 18,16.5 2.5,2.5 0 0 0 15.5,14 Z m 0,1 A 1.5,1.5 0 0 1 17,16.5 1.5,1.5 0 0 1 15.5,18 1.5,1.5 0 0 1 14,16.5 1.5,1.5 0 0 1 15.5,15 Z"
         style="fill:#d9000e;fill-opacity:1" />
      <path
         id="path9"
         d="m 5,8 h 1 v 7 H 5 Z"
         style="fill:#d9000e;fill-opacity:1" />
      <path
         id="path11"
         d="m 10,6 v 1 h 4 a 1,1 0 0 1 1,1 v 7 h 1 V 8 A 2,2 0 0 0 14.048828,6 2,2 0 0 0 14,6 Z"
         style="fill:#d9000e;fill-opacity:1" />
    </g>
    <path
       id="path15"
       d="M 12.5,2.7929688 12.146484,3.1464844 8.7929688,6.5 12.146484,9.8535156 12.5,10.207031 13.207031,9.5 12.853516,9.1464844 10.207031,6.5 12.853516,3.8535156 13.207031,3.5 Z"
       class="ColorScheme-Text"
       fill="currentColor"
       style="color:#fcfcfc;fill:#d9000e;fill-opacity:1" />
  </g>
</svg>
