<?xml version="1.0" encoding="UTF-8" standalone="no"?>
<svg xmlns:dc="http://purl.org/dc/elements/1.1/"
     xmlns:cc="http://creativecommons.org/ns#"
     xmlns:rdf="http://www.w3.org/1999/02/22-rdf-syntax-ns#"
     xmlns:svg="http://www.w3.org/2000/svg"
     xmlns="http://www.w3.org/2000/svg"
     xmlns:xlink="http://www.w3.org/1999/xlink"
     xmlns:sodipodi="http://sodipodi.sourceforge.net/DTD/sodipodi-0.dtd"
     xmlns:inkscape="http://www.inkscape.org/namespaces/inkscape"
     width="64"
     viewBox="0 0 64 64"
     height="64"
     id="svg2"
     version="1.1"
     inkscape:version="0.91 r13725"
     sodipodi:docname="x-office-drawing.svg">
    <metadata id="metadata46">
        <rdf:RDF>
            <cc:Work rdf:about="">
                <dc:format>image/svg+xml</dc:format>
                <dc:type rdf:resource="http://purl.org/dc/dcmitype/StillImage" />
            </cc:Work>
        </rdf:RDF>
    </metadata>
    <sodipodi:namedview pagecolor="#ffffff"
                        bordercolor="#666666"
                        borderopacity="1"
                        objecttolerance="10"
                        gridtolerance="10"
                        guidetolerance="10"
                        inkscape:pageopacity="0"
                        inkscape:pageshadow="2"
                        inkscape:window-width="1920"
                        inkscape:window-height="1025"
                        id="namedview44"
                        showgrid="true"
                        inkscape:zoom="7.375"
                        inkscape:cx="28.463246"
                        inkscape:cy="42.047085"
                        inkscape:window-x="0"
                        inkscape:window-y="26"
                        inkscape:window-maximized="1"
                        inkscape:current-layer="svg2">
        <inkscape:grid type="xygrid"
                       id="grid4364" />
    </sodipodi:namedview>
    <defs id="defs4">
        <linearGradient id="a"
                        y1="17"
                        x1="40"
                        y2="31"
                        gradientUnits="userSpaceOnUse"
                        x2="54">
            <stop stop-color="#060606"
                  id="stop7" />
            <stop offset="1"
                  stop-opacity="0"
                  id="stop9" />
        </linearGradient>
        <linearGradient id="b"
                        y1="392.36"
                        y2="336.36"
                        gradientUnits="userSpaceOnUse"
                        x2="0"
                        gradientTransform="translate(318,-254)">
            <stop stop-color="#ffffff"
                  stop-opacity="0"
                  id="stop12" />
            <stop offset="1"
                  stop-color="#ffffff"
                  stop-opacity=".2"
                  id="stop14" />
        </linearGradient>
        <path id="c"
              d="m376 139.36v-58h30l14 14v44h-14z" />
        <clipPath id="clip-page">
            <path d="M376 89.36 A8 8 0 0 1 384 81.36 H406 L420 95.36 V131.36 A8 8 0 0 1 412 139.36 H384 A8 8 0 0 1 376 131.36 Z" />
        </clipPath>
        <path fill-rule="evenodd"
              id="d"
              d="m420 95.36l-14-14v14z" />
        <linearGradient gradientTransform="translate(-107.16905,-5.58452)"
                        x2="54"
                        gradientUnits="userSpaceOnUse"
                        y2="31"
                        x1="40"
                        y1="17"
                        id="a-6">
            <stop id="stop4240"
                  stop-color="#06060" />
            <stop id="stop4242"
                  stop-opacity="0"
                  offset="1" />
        </linearGradient>
        <linearGradient gradientTransform="translate(254,-36)"
                        x2="0"
                        gradientUnits="userSpaceOnUse"
                        y2="336.36"
                        y1="392.36"
                        id="b-2">
            <stop id="stop4245"
                  stop-opacity="0"
                  stop-color="#ffffff" />
            <stop id="stop4247"
                  stop-opacity=".2"
                  stop-color="#ffffff"
                  offset="1" />
        </linearGradient>
        <path d="m312 357.36v-58h30l14 14v44h-14z"
              id="c-9" />
    </defs>
    <use xlink:href="#c"
         id="use22"
         style="color:#000000;color-interpolation:sRGB;color-interpolation-filters:linearRGB;fill:#992020;color-rendering:auto;image-rendering:auto;shape-rendering:auto;text-rendering:auto;fill-opacity:1"
         clip-path="url(#clip-page)"
         x="0"
         y="0"
         width="100%"
         height="100%"
         transform="translate(-366,-78.36)" />
    <rect x="10"
          y="-61"
          width="44"
          height="1"
          transform="scale(1,-1)"
          id="rect30"
          style="color:#000000;opacity:0.25;color-interpolation:sRGB;color-interpolation-filters:linearRGB;color-rendering:auto;image-rendering:auto;shape-rendering:auto;text-rendering:auto" />
    <path d="M 40,17 54,31 54,17 Z"
          id="path36"
          style="opacity:0.1;fill:url(#a);fill-rule:evenodd"
          inkscape:connector-curvature="0" />
    <path d="m 24,23 0,3 1,0 0,5.057 a 2.5,2.5 0 0 0 -2,2.44336 2.5,2.5 0 0 0 2,2.44531 l 0,5.05 -1,0 0,3 3,0 0,-3 -1,0 0,-3.529 a 13,10.500004 0 0 0 12,6.5293 13,10.500004 0 0 0 1,-0.041 l 0,-0.996 A 12,9.500009 0 0 1 38,42.99607 12,9.500009 0 0 1 26.38086,35.83201 2.5,2.5 0 0 0 28,33.49606 2.5,2.5 0 0 0 26.38281,31.15817 12,9.500009 0 0 1 38,23.99606 a 12,9.500009 0 0 1 1,0.0391 l 0,-1.01 a 13,10.500004 0 0 0 -1,-0.0332 13,10.500004 0 0 0 -12,6.51172 l 0,-3.512 1,0 0,-3 z m 1,1 1,0 0,1 -1,0 z m 0.5,8 A 1.5,1.5 0 0 1 27,33.5 1.5,1.5 0 0 1 25.5,35 1.5,1.5 0 0 1 24,33.5 1.5,1.5 0 0 1 25.5,32 m -0.5,10 1,0 0,1 -1,0 z"
          id="path38"
          inkscape:connector-curvature="0"
          style="color:#4d4d4d;opacity:0.9;color-interpolation:sRGB;color-interpolation-filters:linearRGB;fill:#ffffff;fill-rule:evenodd;color-rendering:auto;image-rendering:auto;shape-rendering:auto;text-rendering:auto" />
    <path style="opacity:0.5;fill:#ffffff;fill-opacity:1;fill-rule:evenodd;stroke:none;stroke-width:1px;stroke-linecap:butt;stroke-linejoin:miter;stroke-opacity:1"
          d="m 40,3 0,14 14,0 z"
          id="path4366"
          inkscape:connector-curvature="0" />
    <use height="100%"
         width="100%"
         y="0"
         x="0"
         style="fill:url(#b)"
         id="use42"
         clip-path="url(#clip-page)"
         xlink:href="#c"
         transform="translate(-366,-78.36)" />
</svg>