<?xml version="1.0" encoding="UTF-8" standalone="no"?>
<svg
   viewBox="0 0 24 24"
   width="24"
   height="24"
   version="1.1"
   id="svg1"
   sodipodi:docname="critical-low-storage.svg"
   inkscape:version="1.4.2 (ebf0e940d0, 2025-05-08)"
   xmlns:inkscape="http://www.inkscape.org/namespaces/inkscape"
   xmlns:sodipodi="http://sodipodi.sourceforge.net/DTD/sodipodi-0.dtd"
   xmlns="http://www.w3.org/2000/svg"
   xmlns:svg="http://www.w3.org/2000/svg"
   xmlns:rdf="http://www.w3.org/1999/02/22-rdf-syntax-ns#"
   xmlns:cc="http://creativecommons.org/ns#"
   xmlns:dc="http://purl.org/dc/elements/1.1/">
  <sodipodi:namedview
     id="namedview1"
     pagecolor="#5a5a5a"
     bordercolor="#000000"
     borderopacity="0.25"
     inkscape:showpageshadow="2"
     inkscape:pageopacity="0.0"
     inkscape:pagecheckerboard="0"
     inkscape:deskcolor="#d1d1d1"
     inkscape:zoom="33.291667"
     inkscape:cx="12.015019"
     inkscape:cy="12"
     inkscape:window-width="1920"
     inkscape:window-height="1008"
     inkscape:window-x="0"
     inkscape:window-y="0"
     inkscape:window-maximized="1"
     inkscape:current-layer="svg1" />
  <defs
     id="defs3051">
    <style
       type="text/css"
       id="current-color-scheme">.ColorScheme-Text { color: #fcfcfc; } </style>
  </defs>
  <path
     id="path1"
     style="fill:#000000"
     class="ColorScheme-Text"
     d="M 12 5 A 6 6 0 0 0 7.6777344 6.8378906 L 7.6777344 8.4863281 A 5 5 0 0 1 12 6 A 5 5 0 0 1 16.119141 8.1933594 L 17.349609 8.1933594 A 6 6 0 0 0 12 5 z M 3.0820312 15.806641 A 4 4 0 0 0 7 19 L 10.193359 19 L 10.193359 18 L 7 18 A 3 3 0 0 1 4.109375 15.806641 L 3.0820312 15.806641 z " />
  <path
     style="color:#da4453;fill:currentColor;fill-opacity:1;stroke:none;stroke-width:1.42857"
     d="m 15.501107,9 c -2.366934,0 -4.285714,0.639593 -4.285714,1.428571 v 7.142858 c 0,0.788978 1.91878,1.428571 4.285714,1.428571 2.366935,0 4.285715,-0.639593 4.285715,-1.428571 V 10.428571 C 19.786822,9.639593 17.868042,9 15.501107,9 Z m 0,1.428571 c 1.05598,0.0012 2.073409,0.1324 2.857143,0.368303 v 0.694756 c -0.784976,0.234894 -1.802267,0.365036 -2.857143,0.365513 -1.05598,-0.0012 -2.073408,-0.1324 -2.857143,-0.368303 v -0.694756 c 0.784976,-0.234894 1.802268,-0.365035 2.857143,-0.365513 z"
     class="ColorScheme-NegativeText"
     id="path1-8" />
  <path
     style="color:#da4453;fill:currentColor;fill-opacity:1;stroke:none"
     d="M 4.2377975,6.0511345 V 11.051135 H 6.2377976 V 6.0511345 Z m 0,6.0000005 v 2 h 2.0000001 v -2 z"
     class="ColorScheme-NegativeText"
     id="path2" />
  <metadata
     id="metadata1">
    <rdf:RDF>
      <cc:Work
         rdf:about="">
        <dc:rights>
          <cc:Agent>
            <dc:title>Breeze icons copyright KDE and licenced under the GNU LGPL version 3 or later</dc:title>
          </cc:Agent>
        </dc:rights>
        <dc:source>https://develop.kde.org/frameworks/breeze-icons/</dc:source>
        <cc:license
           rdf:resource="https://develop.kde.org/frameworks/breeze-icons/" />
      </cc:Work>
    </rdf:RDF>
  </metadata>
</svg>
