<?xml version="1.0" encoding="UTF-8" standalone="no"?>
<svg
   viewBox="0 0 24 24"
   width="24"
   height="24"
   version="1.1"
   id="svg1"
   sodipodi:docname="low-storage.svg"
   inkscape:version="1.4.2 (ebf0e940d0, 2025-05-08)"
   xmlns:inkscape="http://www.inkscape.org/namespaces/inkscape"
   xmlns:sodipodi="http://sodipodi.sourceforge.net/DTD/sodipodi-0.dtd"
   xmlns="http://www.w3.org/2000/svg"
   xmlns:svg="http://www.w3.org/2000/svg"
   xmlns:rdf="http://www.w3.org/1999/02/22-rdf-syntax-ns#"
   xmlns:cc="http://creativecommons.org/ns#"
   xmlns:dc="http://purl.org/dc/elements/1.1/">
  <sodipodi:namedview
     id="namedview1"
     pagecolor="#8d8d8d"
     bordercolor="#000000"
     borderopacity="0.25"
     inkscape:showpageshadow="2"
     inkscape:pageopacity="0.0"
     inkscape:pagecheckerboard="0"
     inkscape:deskcolor="#d1d1d1"
     inkscape:zoom="33.291667"
     inkscape:cx="12.015019"
     inkscape:cy="12"
     inkscape:window-width="1920"
     inkscape:window-height="1008"
     inkscape:window-x="0"
     inkscape:window-y="0"
     inkscape:window-maximized="1"
     inkscape:current-layer="svg1" />
  <defs
     id="defs3051">
    <style
       type="text/css"
       id="current-color-scheme">.ColorScheme-Text { color: #fcfcfc; } </style>
  </defs>
  <path
     id="path1"
     style="fill:#000000"
     class="ColorScheme-Text"
     d="M 12 5 A 6 6 0 0 0 6 11 A 6 6 0 0 0 6 11.099609 A 4 4 0 0 0 3 15 A 4 4 0 0 0 7 19 L 10.193359 19 L 10.193359 18 L 7 18 A 3 3 0 0 1 4 15 A 3 3 0 0 1 7 12 A 3 3 0 0 1 7.0996094 12 A 5 5 0 0 1 7 11 A 5 5 0 0 1 12 6 A 5 5 0 0 1 16.119141 8.1933594 L 17.349609 8.1933594 A 6 6 0 0 0 12 5 z " />
  <path
     style="color:#da4453;fill:currentColor;fill-opacity:1;stroke:none;stroke-width:1.42857"
     d="m 14.990469,8.9999996 c -2.366934,0 -4.285714,0.6395931 -4.285714,1.4285724 v 7.142856 c 0,0.788978 1.91878,1.428572 4.285714,1.428572 2.366934,0 4.285714,-0.639594 4.285714,-1.428572 v -7.142856 c 0,-0.7889793 -1.91878,-1.4285724 -4.285714,-1.4285724 z m 0,1.4285724 c 1.05598,0.0013 2.073409,0.132399 2.857142,0.368302 v 0.694756 c -0.784975,0.234894 -1.802267,0.365036 -2.857142,0.365512 -1.05598,-0.0013 -2.073409,-0.132399 -2.857142,-0.368302 v -0.694756 c 0.784975,-0.234894 1.802267,-0.365036 2.857142,-0.365512 z"
     class="ColorScheme-NegativeText"
     id="path1-8" />
  <metadata
     id="metadata1">
    <rdf:RDF>
      <cc:Work
         rdf:about="">
        <dc:rights>
          <cc:Agent>
            <dc:title>Breeze icons copyright KDE and licenced under the GNU LGPL version 3 or later</dc:title>
          </cc:Agent>
        </dc:rights>
        <dc:source>https://develop.kde.org/frameworks/breeze-icons/</dc:source>
        <cc:license
           rdf:resource="https://develop.kde.org/frameworks/breeze-icons/" />
      </cc:Work>
    </rdf:RDF>
  </metadata>
</svg>
